<svg style="position: absolute; width: 0; height: 0; overflow: hidden;" version="1.1" xmlns="http://www.w3.org/2000/svg" xmlns:xlink="http://www.w3.org/1999/xlink">
<defs>
<symbol id="facebook" viewBox="0 0 320 512">
    <path d="M279.14 288l14.22-92.66h-88.91v-60.13c0-25.35 12.42-50.06 52.24-50.06h40.42V6.26S260.43 0 225.36 0c-73.22 0-121.08 44.38-121.08 124.72v70.62H22.89V288h81.39v224h100.17V288z"></path>
  </symbol>
  <symbol id="instagram" viewBox="0 0 448 512">
    <path d="M224.1 141c-63.6 0-114.9 51.3-114.9 114.9s51.3 114.9 114.9 114.9S339 319.5 339 255.9 287.7 141 224.1 141zm0 189.6c-41.1 0-74.7-33.5-74.7-74.7s33.5-74.7 74.7-74.7 74.7 33.5 74.7 74.7-33.6 74.7-74.7 74.7zm146.4-194.3c0 14.9-12 26.8-26.8 26.8-14.9 0-26.8-12-26.8-26.8s12-26.8 26.8-26.8 26.8 12 26.8 26.8zm76.1 27.2c-1.7-35.9-9.9-67.7-36.2-93.9-26.2-26.2-58-34.4-93.9-36.2-37-2.1-147.9-2.1-184.9 0-35.8 1.7-67.6 9.9-93.9 36.1s-34.4 58-36.2 93.9c-2.1 37-2.1 147.9 0 184.9 1.7 35.9 9.9 67.7 36.2 93.9s58 34.4 93.9 36.2c37 2.1 147.9 2.1 184.9 0 35.9-1.7 67.7-9.9 93.9-36.2 26.2-26.2 34.4-58 36.2-93.9 2.1-37 2.1-147.8 0-184.8zM398.8 388c-7.8 19.6-22.9 34.7-42.6 42.6-29.5 11.7-99.5 9-132.1 9s-102.7 2.6-132.1-9c-19.6-7.8-34.7-22.9-42.6-42.6-11.7-29.5-9-99.5-9-132.1s-2.6-102.7 9-132.1c7.8-19.6 22.9-34.7 42.6-42.6 29.5-11.7 99.5-9 132.1-9s102.7-2.6 132.1 9c19.6 7.8 34.7 22.9 42.6 42.6 11.7 29.5 9 99.5 9 132.1s2.7 102.7-9 132.1z"></path>
  </symbol>
  <symbol id="tiktok" viewBox="0 0 448 512">
    <path d="M448,209.91a210.06,210.06,0,0,1-122.77-39.25V349.38A162.55,162.55,0,1,1,185,188.31V278.2a74.62,74.62,0,1,0,52.23,71.18V0l88,0a121.18,121.18,0,0,0,1.86,22.17h0A122.18,122.18,0,0,0,381,102.39a121.43,121.43,0,0,0,67,20.14Z"></path>
  </symbol>
  <symbol id="linkedin-in" viewBox="0 0 448 512">
    <path d="M100.28 448H7.4V148.9h92.88zM53.79 108.1C24.09 108.1 0 83.5 0 53.8a53.79 53.79 0 0 1 107.58 0c0 29.7-24.1 54.3-53.79 54.3zM447.9 448h-92.68V302.4c0-34.7-.7-79.2-48.29-79.2-48.29 0-55.69 37.7-55.69 76.7V448h-92.78V148.9h89.08v40.8h1.3c12.4-23.5 42.69-48.3 87.88-48.3 94 0 111.28 61.9 111.28 142.3V448z"></path>
  </symbol>
  <symbol id="twitter" viewBox="0 0 512 512">
    <path d="M459.37 151.716c.325 4.548.325 9.097.325 13.645 0 138.72-105.583 298.558-298.558 298.558-59.452 0-114.68-17.219-161.137-47.106 8.447.974 16.568 1.299 25.34 1.299 49.055 0 94.213-16.568 130.274-44.832-46.132-.975-84.792-31.188-98.112-72.772 6.498.974 12.995 1.624 19.818 1.624 9.421 0 18.843-1.3 27.614-3.573-48.081-9.747-84.143-51.98-84.143-102.985v-1.299c13.969 7.797 30.214 12.67 47.431 13.319-28.264-18.843-46.781-51.005-46.781-87.391 0-19.492 5.197-37.36 14.294-52.954 51.655 63.675 129.3 105.258 216.365 109.807-1.624-7.797-2.599-15.918-2.599-24.04 0-57.828 46.782-104.934 104.934-104.934 30.213 0 57.502 12.67 76.67 33.137 23.715-4.548 46.456-13.32 66.599-25.34-7.798 24.366-24.366 44.833-46.132 57.827 21.117-2.273 41.584-8.122 60.426-16.243-14.292 20.791-32.161 39.308-52.628 54.253z"></path>
  </symbol>
  <symbol id="arrow-left" viewBox="0 0 448 512">
    <path d="M172.851 432.178L2.355 261.681C-0.785 258.542 -0.785 253.456 2.355 250.316L172.851 79.82C175.99 76.681 181.076 76.681 184.216 79.82S187.355 88.046 184.216 91.185L27.44 247.962H439.962C444.389 247.962 447.999 251.556 447.999 255.999C447.999 260.441 444.389 264.036 439.962 264.036H27.44L184.216 420.812C187.355 423.952 187.355 429.038 184.216 432.178C181.074 435.319 175.992 435.319 172.851 432.178Z"></path>
  </symbol>
  <symbol id="arrow-right" viewBox="0 0 448 512">
    <path d="M275.148 79.822L445.645 250.318C448.784 253.457 448.784 258.543 445.645 261.683L275.148 432.179C272.009 435.318 266.923 435.318 263.783 432.179C260.644 429.039 260.644 423.953 263.783 420.814L420.56 264.037H8.037C3.61 264.037 0 260.443 0 256C0 251.558 3.61 247.963 8.037 247.963H420.56L263.783 91.187C260.644 88.047 260.644 82.961 263.783 79.822C266.925 76.68 272.007 76.68 275.148 79.822Z"></path>
  </symbol>
  <symbol id="star" viewBox="0 0 576 512">
    <path d="M139.886 512C132.824 512 125.793 508.656 121.106 503.031C116.513 497.531 114.669 490.531 115.919 483.281L142.104 328.469L31.331 218.906C24.613 212.281 22.332 202.906 25.238 193.875C28.113 184.781 35.456 178.5 44.83 177.125L197.788 154.5L266.189 13.688C270.345 5.125 278.501 0 287.938 0C297.312 0 305.686 5.25 309.811 13.688L378.212 154.5L531.201 177.125C540.419 178.5 547.918 184.937 550.762 193.906C553.668 202.906 551.387 212.281 544.669 218.906L433.896 328.469L460.081 483.281C461.3 490.594 459.456 497.562 454.894 503C447.801 511.625 434.895 514.5 424.802 509.094L288 436.062L151.198 509.094C147.667 511 143.854 512 139.886 512ZM280.563 20.688L208.475 169.062L47.174 192.938C39.498 194.107 38.234 203.242 42.581 207.531L159.291 322.969L131.668 485.969C130.333 494.072 138.742 497.699 143.573 495L288 417.938L432.333 494.969C437.408 497.769 445.613 493.905 444.301 485.938L416.709 322.969L533.419 207.531C537.796 203.212 536.345 194.094 528.826 192.938L367.525 169.062L295.437 20.687C292.502 14.754 283.818 14.07 280.563 20.688Z"></path>
  </symbol>
  <symbol id="star-half" viewBox="0 0 576 512">
    <path d="M287.944 10.073C287.942 4.033 281.425 0.062 276.149 3.001C271.93 5.352 268.462 9.006 266.189 13.688L197.787 154.5L44.83 177.125C35.457 178.5 28.113 184.781 25.238 193.875C22.332 202.906 24.613 212.281 31.332 218.906L142.103 328.469L115.918 483.281C114.67 490.531 116.512 497.531 121.105 503.031C125.793 508.656 132.824 512 139.887 512C143.853 512 147.666 511 151.197 509.094L279.535 440.581C284.746 437.8 288 432.374 288 426.467C288 426.467 287.966 74.526 287.944 10.073ZM143.572 495C138.742 497.697 130.334 494.07 131.668 485.969L159.291 322.969L42.58 207.531C38.234 203.24 39.498 194.107 47.174 192.938L208.474 169.062L272 38.312V426.475L143.572 495Z"></path>
  </symbol>
  <symbol id="star-solid" viewBox="0 0 576 512">
    <path d="M316.74 17.805L382.171 150.196L528.532 171.491C554.798 175.287 565.317 207.581 546.283 226.078L440.371 329.067L465.417 474.551C469.925 500.86 442.187 520.452 418.926 508.25L288 439.555L157.074 508.25C133.813 520.546 106.075 500.86 110.583 474.551L135.629 329.067L29.717 226.078C10.683 207.581 21.202 175.287 47.468 171.491L193.829 150.196L259.26 17.805C271.063 -6.083 305.031 -5.786 316.74 17.805Z"></path>
  </symbol>
  <symbol id="star-half-solid" viewBox="0 0 576 512">
    <path d="M528.53 171.49L382.171 150.195L316.739 17.805C310.866 5.971 299.393 0 287.927 0C276.532 0 265.141 5.898 259.259 17.805L193.827 150.195L47.468 171.49C21.202 175.287 10.682 207.58 29.718 226.078L135.628 329.066L110.583 474.551C107.018 495.344 123.599 512 142.19 512C147.122 512 152.196 510.828 157.073 508.25L287.999 439.555L418.925 508.25C423.79 510.803 428.85 511.963 433.77 511.963C452.378 511.963 468.981 495.357 465.415 474.551L440.37 329.066L546.282 226.078C565.317 207.58 554.798 175.287 528.53 171.49ZM406.907 294.654L388.774 312.285L393.065 337.211L412.608 450.73L310.302 397.049L287.999 385.348V67.988L339.14 171.463L350.309 194.066L375.259 197.695L489.52 214.32L406.907 294.654Z"></path>
  </symbol>
  <symbol id="xmark" viewBox="0 0 320 512">
    <path d="M312.973 375.032C322.342 384.401 322.342 399.604 312.973 408.973S288.401 418.342 279.032 408.973L160 289.941L40.968 408.973C31.599 418.342 16.396 418.342 7.027 408.973S-2.342 384.401 7.027 375.032L126.059 256L7.027 136.968C-2.342 127.599 -2.342 112.396 7.027 103.027S31.599 93.658 40.968 103.027L160 222.059L279.032 103.027C288.401 93.658 303.604 93.658 312.973 103.027S322.342 127.599 312.973 136.968L193.941 256L312.973 375.032Z"></path>
  </symbol>
   <symbol id="bars" viewBox="0 0 448 512">
    <path d="M424 392H24C10.8 392 0 402.8 0 416V416C0 429.2 10.8 440 24 440H424C437.2 440 448 429.2 448 416V416C448 402.8 437.2 392 424 392ZM424 72H24C10.8 72 0 82.8 0 96V96C0 109.2 10.8 120 24 120H424C437.2 120 448 109.2 448 96V96C448 82.8 437.2 72 424 72ZM424 232H24C10.8 232 0 242.8 0 256V256C0 269.2 10.8 280 24 280H424C437.2 280 448 269.2 448 256V256C448 242.8 437.2 232 424 232Z"></path>
  </symbol>
</defs>
</svg>
